<?xml version="1.0" encoding="UTF-8"?>
<svg width="1024" height="910" version="1.1" viewBox="0 0 1024 910" xmlns="http://www.w3.org/2000/svg">
 <defs>
  <linearGradient id="linearGradient10795" x1="21.158" x2="1050" y1="477.22" y2="483.21" gradientUnits="userSpaceOnUse">
   <stop stop-color="#19a7cf" offset="0"/>
   <stop stop-color="#85cdfd" offset="1"/>
  </linearGradient>
  <linearGradient id="linearGradient10951" x1="10.776" x2="1049.9" y1="485.43" y2="492.14" gradientUnits="userSpaceOnUse">
   <stop stop-color="#19a7cf" offset="0"/>
   <stop stop-color="#86cfff" offset="1"/>
  </linearGradient>
 </defs>
 <g>
  <g transform="translate(-20.41 -26.32)" stroke-width="3.4777">
   <path d="m543.79 26.338c-11.496-0.098-22.993 0.20016-34.495 0.89279-0.67519 1.3621-1.8393 1.9393-3.4924 1.7315l-17.462 3.1856c-562.76 96.032-440 891-3.4923 888.53 10.45 3.1506 17.964 6.8564 30.914 7.8526 0.77165 0.94223 3.2538 0.53064 4.2223 0.52755l88.061 4.491c0.14461-0.1243 0.2553-0.35512 0.34783-0.62226 2.1501 0.18354 4.5178 0.34526 7.3464 0.45316 33.458-3.6245 85.628-12.379 117.94-21.637 16.764-4.5018 33.062-10.273 48.894-17.315l13.097-6.0602 47.148-25.106c22.142-13.621 43.118-28.802 62.932-45.539 2.2522-2.0804 18.682-16.287 21.677-20.29-524.7-292.68-477.52-441.01 11.479-625.08 0 0-16.528-17.003-46.533-36.836-54.622-35.161-111.38-61.885-170.29-80.169-25.402-7.8725-47.872-13.9-67.407-18.079-25.099-5.3561-50.567-8.5022-76.411-9.4488-11.49-0.88881-22.985-1.3831-34.481-1.4812z" fill="url(#linearGradient10795)"/>
   <path d="m509.29 27.231c-56.275 0.27704-111.31 8.4821-165.12 24.62-53.271 15.999-101.95 40.817-146.02 74.454-65.821 50.213-114.11 112.79-144.87 187.72-8.5914 20.916-15.461 42.941-20.607 66.074-17.672 79.371-16.249 159.09 4.2632 239.15 14.272 55.777 37.918 105.92 70.933 150.43 15.739 21.216 35.167 41.538 58.287 60.954 32.852 27.127 69.182 48.432 109 63.923 43.912 17.361 89.363 28.861 136.35 34.494 59.488 6.672 119.15 8.7457 178.99 6.2293 14.924-0.62333 29.767-2.0273 44.529-4.2205-9.2625 0.71423-14.081 0.18734-27.339 0.5411-47.059-0.46311-83.704 0.22127-122.84-10.93-26-6.046-46.039-13.118-67.823-20.555-0.10367-0.0748-0.17148-0.14787-0.27975-0.22334-40.02-15.596-69.592-31.216-103.17-52.952-103.66-76.67-156.82-179.98-159.5-309.94-0.37255-14.337-0.41574-40.598-0.13657-78.782 0.27939-39.039 3.2723-74.524 8.9767-106.45 7.3341-41.14 21.462-79.821 42.394-116.04l4.6452-7.7917c8.4982-15.306 18.3-29.735 29.406-43.287l8.8743-10.524c34.924-40.47 75.91-73.614 122.97-99.425 36.135-22.024 75.184-36.208 117.14-42.557l17.462-3.1857c1.6531 0.20778 2.8172-0.36935 3.4924-1.7315zm-338.88 799.65c0.0314 9.9e-4 0.0639 3e-3 0.0954 7e-3 -0.045-9.9e-4 -0.0905-9.9e-4 -0.13658 0 0.0137-3e-3 0.0279-3e-3 0.0408-7e-3z" fill="#1e171e"/>
   <path d="m895.21 142.09c51.688 29.643 93.527 68.428 125.52 116.36 7.5205 11.289 13.353 23.721 17.497 37.296 4.7032 15.376 5.5297 28.004 2.4795 37.885-3.143 10.297-9.8137 17.8-20.012 22.509-6.1235 2.8165-15.495 4.2825-28.114 4.398-119.56 1.062-299.7-2.0644-426.88 3.7883l-3.1457 236.22s301.31 1.5792 431.77 2.0544c13.9 0.18458 23.795 1.8354 29.686 4.952 9.6622 5.1021 16.205 13.621 19.627 25.557 0.7915 2.7704 0.9779 8.3688 0.5587 16.795-0.3027 5.7024-1.2571 11.162-2.8637 16.38-37.664 82.751-134.77 146.76-134.77 146.76-51.167 41.711-162.83 54.684-264.66 54.684-115.77 0-187.72-55.238-237.38-109.95-44.214-48.712-69.988-106.16-77.323-172.35-1.4901-13.575-2.5378-36.627-3.1432-69.155-0.88474-46.75 0.32583-93.465 3.6321-140.15 2.794-20.316 7.2061-40.274 13.236-59.875 15.576-42.11 39.395-79.625 71.455-112.55 52.503-53.907 115.66-88.202 189.46-102.88 102.19-15.075 199.98-1.3159 293.36 41.279z" fill="#1e171e"/>
   <path d="m562.55 600.55c-74.982 0.97703-75.703-78.401-75.703-119.06 0-54.951 0.76435-118.44 66.078-118.91l97.809-0.69934c-36.647 23.133-58.717 64.609-60.548 104.84-2.2517 49.459 8.5908 101.2 62.424 135.02z" fill="url(#linearGradient10951)"/>
  </g>
 </g>
</svg>
