<svg xmlns="http://www.w3.org/2000/svg" viewBox="0 0 512 512"><defs><style>.cls-1{fill:#00c555;stroke:#00c555;}.cls-1,.cls-2{stroke-miterlimit:10;stroke-width:10px;}.cls-2{fill:#83ff8f;stroke:#83ff8f;}</style></defs><g id="Layer_2" data-name="Layer 2"><g id="Layer_3" data-name="Layer 3"><path class="cls-1" d="M263.36,413.93v34.19c19,10.49,25.52,22.13,21,37.52-4,13.58-16.2,22.08-30.63,21.31-13-.69-24.7-11.2-26.82-24.13-2.54-15.44,4.89-27.36,21.55-34.25V412.32a158.63,158.63,0,0,1-83.82-29.25c-7.72,12.37-15.65,24.08-22.5,36.4-4.18,7.5-9.31,10.25-17.83,9.84-14.3-.7-28.66-.19-43.1-.19-.58,1.43-1.08,2.69-1.61,3.94a29.67,29.67,0,0,1-33.27,17.86c-13.06-2.4-23.31-14.43-23.66-27.8-.38-14.47,9.08-26.93,22.82-30.05s27.63,3.41,33.37,16.5c1.85,4.21,3.91,5.39,8.31,5.27,12.26-.34,24.53,0,36.8-.21,1.77,0,4.32-.78,5.16-2.08,7.44-11.43,14.58-23.05,21.79-34.63.72-1.16,1.35-2.37,2.2-3.86q-49-44.3-53.55-110.52H63.78c-10.42,18.67-21.83,25.19-37,21a29.63,29.63,0,0,1,.85-57.37c15.3-3.57,27.1,3.41,36,21.33H99.59q4.43-66.18,53.64-110.69c-8.13-13-16.11-25.93-24.23-38.74a4.57,4.57,0,0,0-3.31-1.74c-14.85-.12-29.7-.08-44.4-.08C73.4,114.88,61,122.31,45.62,119a29.64,29.64,0,0,1,.06-57.77c15.53-3.32,27.78,4.06,35.63,21.68,15.57,0,31.28.19,47-.11,5.55-.1,8.91,1.94,11.72,6.62,7.89,13.16,16.16,26.08,24.55,39.54a159.16,159.16,0,0,1,84.19-29.28c0-11.61.13-23-.19-34.3,0-1.22-2.49-2.74-4.12-3.48-11.62-5.27-19-17-18-28.94C227.56,19.7,235.81,9.41,248,6.09a29.55,29.55,0,0,1,19.59,55.64c-1.26.55-2.56,1-4.1,1.62V99.57a159.28,159.28,0,0,1,83.69,29.28c1-1.49,2-2.8,2.86-4.19C357.43,112.8,365,101,372.13,89c2.73-4.56,6.14-6.31,11.42-6.22,15.7.26,31.42.1,47,.1,8.47-17.95,20.69-25.21,36.1-21.64a29.7,29.7,0,0,1,22.63,29.7C489,104.36,479,116.44,465.94,119c-12.51,2.48-28.4-2.35-35.21-21.73-14.86,0-29.86,0-44.86.07A4,4,0,0,0,383,99c-8.1,12.82-16.1,25.72-24.26,38.82,32.78,29.72,50.67,66.49,53.6,110.94,11.59,0,22.95.12,34.3-.19,1.2,0,2.72-2.52,3.44-4.15,5-11.45,16.77-18.8,29-18A29.58,29.58,0,1,1,450.42,268c-.63-1.41-1.18-2.86-1.86-4.54h-36.2c-2.89,43.77-20.63,80.59-53.63,110.52,4.2,6.78,8.43,13.63,12.68,20.46,3.65,5.87,7.23,11.78,11,17.53.81,1.22,2.53,2.59,3.85,2.6,14.84.19,29.69.12,44.39.12,7.47-17.32,19.61-24.76,35.12-21.78,13.23,2.53,23.36,14.83,23.48,28.49.13,14.12-9.59,26.51-23,29.38-15.43,3.3-27.69-4.09-35.64-21.68-14.36,0-28.89-.52-43.36.2-8.44.42-13.28-2.56-17.34-9.78-6.92-12.3-14.81-24.06-21.75-35.18-13.9,6.58-27,14.12-41,19S278.53,410.4,263.36,413.93Zm-7.65-15.88c78.16,0,142.17-63.27,142.3-140.74C398.15,177.67,335,114,255.69,113.94c-77.82-.06-141.7,63.61-141.75,141.28C113.9,334.3,177.14,398,255.71,398.05ZM256,49.66a15.14,15.14,0,1,0-15.33-15A15.27,15.27,0,0,0,256,49.66ZM37.06,90.06a15.12,15.12,0,1,0,15-15.3A15.17,15.17,0,0,0,37.06,90.06Zm437.84.11a15.12,15.12,0,1,0-15.1,15.2A15.29,15.29,0,0,0,474.9,90.17Zm17.65,166.06a15.14,15.14,0,1,0-15.23,15A15.26,15.26,0,0,0,492.55,256.23ZM19.4,256a15.14,15.14,0,1,0,15-15.33A15.16,15.16,0,0,0,19.4,256ZM37.06,421.7a15.13,15.13,0,1,0,15.22-15.08A15.2,15.2,0,0,0,37.06,421.7ZM474.9,422a15.12,15.12,0,1,0-15,15.26A15.26,15.26,0,0,0,474.9,422ZM256,492.58a15.13,15.13,0,1,0-15.31-14.95A15.17,15.17,0,0,0,256,492.58Z"/></g><g id="Layer_8" data-name="Layer 8"><path class="cls-2" d="M263.25,192.5c3.34.73,6.55,1.29,9.68,2.12a62.45,62.45,0,0,1,28.23,16.29c2,2,2,3.77.18,5.79-1.27,1.39-2.55,2.76-3.84,4.13-2.28,2.42-4,2.43-6.48,0A50.09,50.09,0,0,0,263.69,207c-24.55-4.1-49,11.87-55.39,36.13-6.9,26.17,8,53,33.92,60.34,18,5.08,34.06,1,48-11.48,2.78-2.49,4-2.55,6.8,0,1.28,1.14,2.58,2.25,3.84,3.41,2.08,1.9,2.15,3.92.16,5.87a63.18,63.18,0,0,1-33.92,17.46l-3.83.65c0,3.36,0,6.62,0,9.88,0,3.48-1.17,4.62-4.71,4.63-1.82,0-3.65,0-5.47,0-2.56-.07-3.87-1.38-3.91-3.93,0-3-.06-6.08,0-9.12,0-1.19-.34-1.62-1.53-1.78A63.63,63.63,0,0,1,243,193.73c1.61-.35,3.26-.58,4.9-.79.94-.11,1.32-.46,1.3-1.46,0-3.1,0-6.19,0-9.29,0-2.66,1.32-4,4-4,2-.05,4.09,0,6.13,0,2.66,0,4,1.37,4,4C263.27,185.62,263.25,189.09,263.25,192.5Z"/></g></g></svg>